# xmcd CD database file
#
# Track frame offsets:
#	150
#	20805
#	32752
#	54100
#	68205
#	81107
#	105352
#	137812
#	152115
#	192465
#
# Disc length: 3725 seconds
#
# Revision: 0
# Processed by: cddbd v1.5PL3 Copyright (c) Steve Scherf et al.
# Submitted via: CDex 1.51
#
DISCID=800e8b0a
DTITLE=Lucas van Merwijk - The Machito Project
DYEAR=1995
DGENRE=Salsa
TTITLE0=El As De La Rumba
TTITLE1=Consternacion
TTITLE2=Cuban Fantasy
TTITLE3='Cancion'
TTITLE4=Pineiro Tenia Razon
TTITLE5=Holiday
TTITLE6=Zambia
TTITLE7=Tin Tin Deo
TTITLE8=Gaujira Medley
TTITLE9=Wild Jungle
EXTD=YEAR: 1995
EXTT0=
EXTT1=
EXTT2=
EXTT3=
EXTT4=
EXTT5=
EXTT6=
EXTT7=
EXTT8=
EXTT9=
PLAYORDER=
